<?xml version="1.0" encoding="UTF-8"?>
<svg version="1.1" xmlns="http://www.w3.org/2000/svg" width="32" height="32">
<path d="M0 0 C10.56 0 21.12 0 32 0 C32 10.56 32 21.12 32 32 C21.44 32 10.88 32 0 32 C0 21.44 0 10.88 0 0 Z " fill="#1A1B1A" transform="translate(0,0)"/>
<path d="M0 0 C1 1 1 1 1.09765625 3.72265625 C1.08605469 4.82480469 1.07445312 5.92695313 1.0625 7.0625 C1.05347656 8.16722656 1.04445313 9.27195312 1.03515625 10.41015625 C1.02355469 11.26480469 1.01195312 12.11945312 1 13 C0.34 13 -0.32 13 -1 13 C-1.33 9.04 -1.66 5.08 -2 1 C-3.65 1.66 -5.3 2.32 -7 3 C-7.33 6.3 -7.66 9.6 -8 13 C-8.66 13 -9.32 13 -10 13 C-10 8.71 -10 4.42 -10 0 C-5.98674521 -1.0033137 -3.95203406 -0.87822979 0 0 Z " fill="#367A36" transform="translate(28,12)"/>
<path d="M0 0 C4.62 0 9.24 0 14 0 C14 0.66 14 1.32 14 2 C12.02 2 10.04 2 8 2 C8 7.28 8 12.56 8 18 C7.34 18 6.68 18 6 18 C6 12.72 6 7.44 6 2 C4.02 2 2.04 2 0 2 C0 1.34 0 0.68 0 0 Z " fill="#377E37" transform="translate(3,7)"/>
</svg>
