<?xml version="1.0" encoding="UTF-8"?>
<svg version="1.1" xmlns="http://www.w3.org/2000/svg" width="48" height="48">
<path d="M0 0 C15.84 0 31.68 0 48 0 C48 15.84 48 31.68 48 48 C32.16 48 16.32 48 0 48 C0 32.16 0 16.32 0 0 Z " fill="#1A1C1A" transform="translate(0,0)"/>
<path d="M0 0 C0.99 0 1.98 0 3 0 C3 0.66 3 1.32 3 2 C3.515625 1.67 4.03125 1.34 4.5625 1 C7.87219404 -0.3578232 10.45640517 -0.32214498 14 0 C16.09092004 1.5469017 16.89868887 2.40716646 17.34057617 4.99291992 C17.32486572 5.73131104 17.30915527 6.46970215 17.29296875 7.23046875 C17.28330078 8.03291016 17.27363281 8.83535156 17.26367188 9.66210938 C17.23853516 10.49548828 17.21339844 11.32886719 17.1875 12.1875 C17.16719727 13.4549707 17.16719727 13.4549707 17.14648438 14.74804688 C17.11115799 16.83230384 17.05735139 18.91623277 17 21 C16.01 21 15.02 21 14 21 C13.67 15.39 13.34 9.78 13 4 C10.69 4 8.38 4 6 4 C4.47893366 7.04213267 4.62570662 10.28047572 4.4375 13.625 C4.39431641 14.33140625 4.35113281 15.0378125 4.30664062 15.765625 C4.20055249 17.51018537 4.09977111 19.25506697 4 21 C2.68 21 1.36 21 0 21 C0 14.07 0 7.14 0 0 Z " fill="#357435" transform="translate(26,17)"/>
<path d="M0 0 C6.6 0 13.2 0 20 0 C20 0.66 20 1.32 20 2 C17.03 2 14.06 2 11 2 C11 10.25 11 18.5 11 27 C10.01 27 9.02 27 8 27 C8 18.75 8 10.5 8 2 C5.36 2 2.72 2 0 2 C0 1.34 0 0.68 0 0 Z " fill="#377D37" transform="translate(5,11)"/>
</svg>
